<svg version="1.1" id="Layer_1" xmlns="http://www.w3.org/2000/svg" xmlns:xlink="http://www.w3.org/1999/xlink" x="0px" y="0px"
	 width="72px" height="72px" viewBox="0 0 72 72" enable-background="new 0 0 72 72" xml:space="preserve">
	<path fill="#FFFFFF" stroke="#58595B" stroke-width="3" stroke-miterlimit="10" d="M23.939,43.417
		c-20.292,0-16.538-16.523-7.438-17.271c4.021-9.771,14.063-11.813,22.438-6.5c21.104-23.563,45.021,23.771,5,23.771"/>
	<g>
		<g>
			<path id = "arrow1" fill="none" stroke="#000000" stroke-width="3" stroke-miterlimit="10" d="M43.439,34.549c0,4.163-3.871,7.538-8.647,7.538
				c-2.148,0-4.113-0.683-5.625-1.813">
			</path>
			<g>
				<polygon id = "arrowPoint1" fill="none" points="34.043,38.783 26.124,34.562 26.427,43.531"/>
			</g>
		</g>
	</g>
	<g>
		<g>
			<path id = "arrow2" fill="none" stroke="#000000" stroke-width="3" stroke-miterlimit="10" d="M26.145,31.414c0-4.164,3.871-7.539,8.647-7.539
				c2.148,0,4.113,0.683,5.625,1.813">
			</path>
			<g>
				<polygon id = "arrowPoint2" fill="none" points="35.542,27.179 43.46,31.4 43.158,22.431"/>
			</g>
		</g>
	</g>
	<line id = "rain1" fill="none" stroke="#58595B" stroke-width="2" stroke-miterlimit="10" x1="16.5" y1="47.025" x2="16.5" y2="56.525"/>
	<line id = "rain2" fill="none" stroke="#58595B" stroke-width="2" stroke-miterlimit="10" x1="28.46" y1="48.358" x2="28.46" y2="57.025"/>
	<line id = "rain3" fill="none" stroke="#58595B" stroke-width="2" stroke-miterlimit="10" x1="38.794" y1="51.775" x2="38.794" y2="56.941"/>
	<line id = "rain4" fill="none" stroke="#58595B" stroke-width="2" stroke-miterlimit="10" x1="47.96" y1="46.141" x2="47.96" y2="53.525"/>
	<line id = "rain5" fill="none" stroke="#58595B" stroke-width="2" stroke-miterlimit="10" x1="54.96" y1="48.358" x2="54.96" y2="56.525"/>
	
	<animate xlink:href="#arrow1" attributeName="stroke" from="rgba(0,0,0,0)" to="black" dur="5s" repeatCount="indefinite" />
	<animate xlink:href="#arrow2" attributeName="stroke" from="black" to="rgba(0,0,0,0)" dur="5s" repeatCount="indefinite" />
	
	<animate xlink:href="#arrowPoint1" attributeName="fill" from="rgba(0,0,0,0)" to="black" dur="5s" repeatCount="indefinite" />
	<animate xlink:href="#arrowPoint2" attributeName="fill" from="black" to="rgba(0,0,0,0)" dur="5s" repeatCount="indefinite" />
	
	<animate xlink:href="#rain1" attributeName="stroke" from="black" to="rgba(0,0,0,0)" dur="2s" repeatCount="indefinite" />
	<animate xlink:href="#rain2" attributeName="stroke" from="black" to="rgba(0,0,0,0)" dur="5s" repeatCount="indefinite" />
	<animate xlink:href="#rain3" attributeName="stroke" from="black" to="rgba(0,0,0,0)" dur="3s" repeatCount="indefinite" />
	<animate xlink:href="#rain4" attributeName="stroke" from="black" to="rgba(0,0,0,0)" dur="5s" repeatCount="indefinite" />
	<animate xlink:href="#rain5" attributeName="stroke" from="black" to="rgba(0,0,0,0)" dur="2s" repeatCount="indefinite" />
	
</svg>